Coordinates
version=1
nRows=7
nColumns=40
inDegrees=yes

Units are S.I. units (second, meters, Newtons, ...)
Angles are in degrees.

endheader
time	pelvis_tilt	pelvis_list	pelvis_rotation	pelvis_tx	pelvis_ty	pelvis_tz	hip_flexion_r	hip_adduction_r	hip_rotation_r	knee_angle_r	knee_angle_r_beta	ankle_angle_r	subtalar_angle_r	mtp_angle_r	hip_flexion_l	hip_adduction_l	hip_rotation_l	knee_angle_l	knee_angle_l_beta	ankle_angle_l	subtalar_angle_l	mtp_angle_l	lumbar_extension	lumbar_bending	lumbar_rotation	arm_flex_r	arm_add_r	arm_rot_r	elbow_flex_r	pro_sup_r	wrist_flex_r	wrist_dev_r	arm_flex_l	arm_add_l	arm_rot_l	elbow_flex_l	pro_sup_l	wrist_flex_l	wrist_dev_l
     18.12314286	     -4.34060580	     -5.41642650	     -0.61822621	      1.04462836	      0.93457911	      0.43400705	     29.76279366	     -4.18052297	     -6.58670724	     60.18498110	     60.18498110	      5.88674433	    -11.88809896	     -1.14214392	     11.33547929	     -5.53554536	     -6.81080052	     20.80872882	     20.80872882	     16.46605646	     -6.72501159	      1.95026358	    -10.83871012	      4.16223451	      1.33042097	     -5.62891085	    -13.54388234	     -5.26681099	     33.05657242	     46.04899749	      0.00000000	      0.00000000	     18.29074750	    -15.26588232	     -7.04799822	     43.61971896	     46.62848841	      0.00000000	      0.00000000
     18.13628571	     -4.44018204	     -5.42494313	     -0.61309658	      1.04383470	      0.93471913	      0.43406985	     30.36669722	     -4.04777732	     -6.71768968	     58.75573331	     58.75573331	      5.98364801	    -12.38021224	     -0.81948818	     10.83249620	     -5.51563691	     -6.87463995	     20.24696146	     20.24696146	     16.41428117	     -6.52810385	      1.59941185	    -10.89511470	      4.15930229	      1.47153879	     -7.15698289	    -13.19143364	     -5.34714652	     33.20655811	     46.03226220	      0.00000000	      0.00000000	     19.05525238	    -15.24273728	     -6.70528674	     44.68197041	     46.60966058	      0.00000000	      0.00000000
     18.14942857	     -4.56335462	     -5.44058490	     -0.60757224	      1.04300070	      0.93474796	      0.43420683	     30.85981926	     -3.89423314	     -6.86422733	     56.99294275	     56.99294275	      6.10473785	    -12.81011663	     -0.50015379	     10.37059549	     -5.50916139	     -6.94230466	     19.71307149	     19.71307149	     16.44585295	     -6.32147575	      1.40926405	    -10.92381631	      4.18504023	      1.49967347	     -8.35016914	    -12.90520860	     -5.36644154	     33.11435649	     46.02575322	      0.00000000	      0.00000000	     19.76132391	    -15.19799837	     -6.48470853	     45.50732805	     46.60216625	      0.00000000	      0.00000000
     18.16257143	     -4.71195785	     -5.42473622	     -0.57236930	      1.04211231	      0.93463467	      0.43433768	     31.25236678	     -3.79636849	     -7.05388941	     54.94372570	     54.94372570	      6.25750649	    -13.07989860	     -0.20136534	     10.00316905	     -5.48036168	     -7.00890441	     19.28427174	     19.28427174	     16.47703119	     -6.09328762	      1.22769102	    -10.92882004	      4.19990813	      1.54165804	     -9.38788617	    -12.63246857	     -5.36274186	     32.98422233	     46.02098523	      0.00000000	      0.00000000	     20.45437983	    -15.10491656	     -6.27324915	     46.31903833	     46.59610508	      0.00000000	      0.00000000
     18.17571429	     -4.91133064	     -5.40856781	     -0.49843379	      1.04113960	      0.93429035	      0.43450049	     31.58220398	     -3.68564558	     -7.25631830	     52.63883773	     52.63883773	      6.52332511	    -13.19037044	      0.05227391	      9.72181993	     -5.45058723	     -7.01656754	     18.89708140	     18.89708140	     16.58827146	     -5.84983506	      1.06736005	    -10.89556989	      4.21067533	      1.51756744	    -10.21212635	    -12.38136054	     -5.33014234	     32.83044854	     46.01751143	      0.00000000	      0.00000000	     21.09167962	    -14.97696329	     -6.09854866	     47.01809761	     46.59256426	      0.00000000	      0.00000000
     18.18885714	     -5.07181101	     -5.34289163	     -0.45344987	      1.04026140	      0.93398209	      0.43474057	     31.71532236	     -3.59970073	     -7.43430892	     50.02089415	     50.02089415	      6.70732307	    -13.12625441	      0.31736281	      9.41337174	     -5.39155496	     -7.09711719	     18.56043589	     18.56043589	     16.66256562	     -5.57462932	      0.88786197	    -10.88080097	      4.19945061	      1.60979637	    -10.94284668	    -12.19389065	     -5.28643833	     32.68836221	     46.01369977	      0.00000000	      0.00000000	     21.74587274	    -14.77500784	     -5.87114457	     47.80942401	     46.58549344	      0.00000000	      0.00000000
     18.20200000	     -5.18148407	     -5.27068092	     -0.40803884	      1.03942552	      0.93354794	      0.43509812	     31.62816546	     -3.46469664	     -7.58351674	     47.09499289	     47.09499289	      6.66756255	    -13.03004888	     -0.29484924	      9.06148464	     -5.38767976	     -7.44444837	     18.25053319	     18.25053319	     16.57944924	     -4.96604652	     -0.12834194	    -11.00761661	      4.14781776	      1.98695131	    -11.93158911	    -12.09139609	     -5.34234913	     33.30503821	     45.97876090	      0.00000000	      0.00000000	     22.08588679	    -14.81913235	     -4.13366910	     49.72686708	     46.45244221	      0.00000000	      0.00000000
